<?xml version="1.0" encoding="utf-8" ?>
<svg baseProfile="full" height="200mm" version="1.1" viewBox="0,0,200,200" width="200mm" xmlns="http://www.w3.org/2000/svg" xmlns:ev="http://www.w3.org/2001/xml-events" xmlns:xlink="http://www.w3.org/1999/xlink"><defs /><rect fill="#1a1a1a" height="200" width="200" x="0" y="0" /><text alignment-baseline="middle" fill="#e1ed5e" style="dominant-baseline: central; font-size:9.0px; font-family:Arial;" text-anchor="middle" x="100.0" y="100.0">2022</text><line stroke="#e1ed5e" stroke-width="0.3" x1="100.0" x2="100.0" y1="15.0" y2="10.0" /><path d="M 100.0 14.0 a86.0,86.0 0 0,1 42.46469731375804,11.215312516191453" fill="none" id="id145" stroke="none" /><text fill="#e1ed5e" style="font-size:6.75px; font-family:Arial;" text-anchor="middle"><textPath startOffset="22.20632615414155" xlink:href="#id145">January</textPath></text><path d="M 100.0 79.0 l 0.0 -63.0 a84.0,84.0 0 0,0 1.4459219170901134,0.012445506434235476 l -1.084441437817585 62.990665870174325" fill="#4dd2ff" stroke="none" /><path d="M 100.36148047927253 79.00311137660856 l 0.5693628746518277 -33.07190720068005 a54.07680788669646,54.07680788669646 0 0,0 0.9305675249493432,0.024033813727820163 l -1.1385570347960388 33.05720659480988" fill="#e8ff1a" stroke="none" /><path d="M 100.72285384407766 79.0124445844662 l 1.591170027250043 -46.19850803319364 a67.22590146821018,67.22590146821018 0 0,0 1.1561547912445527,0.04978645734719721 l -2.3861656508839273 46.16427384932225" fill="#30ff3a" stroke="none" /><path d="M 101.44485096284872 79.0497635885617 l 1.8829292690434425 -27.302340758177703 a48.36719264937257,48.36719264937257 0 0,0 0.8300957497064538,0.06443140633553446 l -2.3526152081122373 27.265884089653706" fill="#ffb510" stroke="none" /><path d="M 103.2404852339499 79.25152402106235 l 4.993753806065933 -31.97446475125313 a53.362076157204854,53.362076157204854 0 0,0 0.9063187650032408,0.1495503618643742 l -5.543401777208049 31.88376812644913" fill="#f4ff19" stroke="none" /><path d="M 105.36241919743992 79.69619591428918 l 13.544979679769455 -51.28554923387338 a74.04407633982723,74.04407633982723 0 0,0 1.229491700484688,0.33606652606052 l -14.425769269477852 51.04479616698657" fill="#3cffa5" stroke="none" /><path d="M 105.71112130821622 79.79150937346287 l 8.940884231871786 -31.636830219802807 a53.87595530481756,53.87595530481756 0 0,0 0.8902611200127196,0.2598916334990124 l -9.484135569607933 31.478240257385092" fill="#ebff1a" stroke="none" /><path d="M 107.4271985657038 80.35727306442388 l 10.072463351165492 -26.638664016490218 a49.47934231235024,49.47934231235024 0 0,0 0.7940653020955397,0.3080850006684275 l -10.5295118182607 26.461336311931245" fill="#ffc812" stroke="none" /><path d="M 107.76421540070413 80.48803036053334 l 12.058952639869265 -30.3049188681134 a53.61604584209351,53.61604584209351 0 0,0 0.8545788282017699,0.3486041612200017 l -12.578815337659421 30.09285382070982" fill="#f0ff19" stroke="none" /><path d="M 108.76106565485865 80.91482961587045 l 13.704300284896997 -29.853549355321455 a53.84877859843866,53.84877859843866 0 0,0 0.8390711263006203,0.39395514451360775 l -14.216149622497214 29.613229228167842" fill="#ecff1a" stroke="none" /><path d="M 109.73455568895987 81.39251694778311 l 16.20907517561019 -30.98344714020565 a55.96724345353091,55.96724345353091 0 0,0 0.8497825146340134,0.45392438948532143 l -16.740002736772517 30.699844024218578" fill="#caff1d" stroke="none" /><path d="M 110.36928655335952 81.73862282372117 l 17.550782897817314 -30.908728829775413 a56.544050109672455,56.544050109672455 0 0,0 0.8422458873309407,0.48788318115244583 l -18.080225517613584 30.602041491232917" fill="#c1ff1e" stroke="none" /><line stroke="#e1ed5e" stroke-width="0.3" x1="143.23703022742887" x2="145.7803849466894" y1="26.81831364943548" y2="22.513508569990506" /><path d="M 143.74570117128098 25.957352633546492 a86.0,86.0 0 0,1 28.547481713284135,27.462654790039103" fill="none" id="id146" stroke="none" /><text fill="#e1ed5e" style="font-size:6.75px; font-family:Arial;" text-anchor="middle"><textPath startOffset="19.985693538727396" xlink:href="#id146">February</textPath></text><path d="M 110.68208982089419 81.91981866633111 l 18.005124104044242 -30.4749271158143 a56.396407680953004,56.396407680953004 0 0,0 0.8315460546227641,0.5009971936779054 l -18.527032224884646 30.16048331267778" fill="#c3ff1e" stroke="none" /><path d="M 110.99172775467656 82.1063720568725 l 18.53318685915194 -30.170502550614064 a56.40816628001021,56.40816628001021 0 0,0 0.822970561809326,0.5153440903055355 l -19.049776573333528 29.847014118985584" fill="#c3ff1e" stroke="none" /><path d="M 111.60114157652 82.49532879139004 l 19.734262315103713 -29.77653286030965 a56.72230421322823,56.72230421322823 0 0,0 0.8092255268917719,0.5463926880622393 l -20.243892536402026 29.432428259948743" fill="#beff1f" stroke="none" /><path d="M 112.48926042617603 83.11751280151076 l 19.589688530785676 -26.480564465628788 a53.93897677754301,53.93897677754301 0 0,0 0.7416708098501337,0.558611077530712 l -20.042605494394195 26.13943679859223" fill="#eaff1a" stroke="none" /><path d="M 113.06298171725822 83.55741782278167 l 22.041470360625954 -27.743948170156518 a56.43378438336334,56.43378438336334 0 0,0 0.7553973807765585,0.610812147554727 l -22.515771139967004 27.36042992533766" fill="#c2ff1e" stroke="none" /><path d="M 113.89432698308785 84.25364557470407 l 21.726743239475212 -24.622783095043285 a53.83797830469518,53.83797830469518 0 0,0 0.6896106959051652,0.6191392917352831 l -22.147364922976365 24.245144794538703" fill="#ecff1a" stroke="none" /><path d="M 114.42810811169701 84.74124197986012 l 24.340384202031384 -25.741700143966312 a56.42724134623488,56.42724134623488 0 0,0 0.7000115184485882,0.6734105261291427 l -24.77987896409239 25.318906531074866" fill="#c2ff1e" stroke="none" /><path d="M 114.94478906791727 85.2469230424477 l 42.46908725585347 -41.92429279230549 a80.67637470959721,80.67637470959721 0 0,0 0.9671012661563965,0.996682865375465 l -43.18445278571298 41.18704573137991" fill="#47fcff" stroke="none" /><path d="M 115.68641384162765 86.03803664274999 l 19.96901103264193 -17.773762896551144 a47.73327606419747,47.73327606419747 0 0,0 0.540995622922083,0.6184515175494435 l -20.271998519141864 17.42739582279875" fill="#ffaa0f" stroke="none" /><path d="M 116.15771136456269 86.58626213691792 l 28.14809294589873 -23.367860187801664 a57.583767250620866,57.583767250620866 0 0,0 0.6265703642232368,0.7681011800238815 l -28.546161802198373 22.879874838169684" fill="#b0ff20" stroke="none" /><path d="M 116.60985879189232 87.15038557335679 l 28.952624554965023 -22.398147198714295 a57.60507432796766,57.60507432796766 0 0,0 0.5999817009859421,0.7895055894330348 l -29.33388219617508 21.896456833400226" fill="#b0ff20" stroke="none" /><path d="M 117.2510076193507 88.02491185347247 l 28.921722690267398 -20.076518787046545 a56.20699717356425,56.20699717356425 0 0,0 0.5448747372744921,0.7995364429391328 l -29.26302189321062 19.57570432083701" fill="#c6ff1e" stroke="none" /><path d="M 117.45458315368197 88.32363383020206 l 29.53833627878048 -19.759877815524476 a56.53823407828216,56.53823407828216 0 0,0 0.5341607558120196,0.8135634777647025 l -29.874093669950426 19.2484962737821" fill="#c1ff1e" stroke="none" /><line stroke="#e1ed5e" stroke-width="0.3" x1="172.23445277983987" x2="176.4835382374775" y1="55.19839476539836" y2="52.563006222186495" /><path d="M 173.08426987136738 54.67131705675599 a86.0,86.0 0 0,1 12.851231095245387,41.99856678651699" fill="none" id="id147" stroke="none" /><text fill="#e1ed5e" style="font-size:6.75px; font-family:Arial;" text-anchor="middle"><textPath startOffset="22.20632615414155" xlink:href="#id147">March</textPath></text><path d="M 118.03404312379186 89.2402003453031 l 40.987861018433236 -24.454925044017127 a68.72890224774602,68.72890224774602 0 0,0 0.5974188661714577,1.0211824984577809 l -41.40273955907502 23.74576313320545" fill="#33ff52" stroke="none" /><path d="M 118.56541770881063 90.18545643968196 l 33.753188009196535 -17.843505554881833 a59.179423663424615,59.179423663424615 0 0,0 0.4683362839943886,0.9046766322319493 l -34.05533372635104 17.25985620038954" fill="#98ff23" stroke="none" /><path d="M 118.73160827565052 90.50648371742162 l 33.83011463299687 -17.14571110945868 a58.926930610461,58.926930610461 0 0,0 0.4507629223790416,0.9087105455897866 l -34.120237568329316 16.560840975369945" fill="#9cff22" stroke="none" /><path d="M 118.89224826269711 90.83032412892265 l 28.63034128903028 -13.896225904309105 a52.82454299294718,52.82454299294718 0 0,0 0.3900005978623968,0.8214407216509167 l -28.865300080734432 13.401342767017649" fill="#fdff18" stroke="none" /><path d="M 119.196687751892 91.48605970444005 l 30.877577572166732 -13.694542273056358 a54.778177641692004,54.778177641692004 0 0,0 0.37486347738090925,0.865236589606489 l -31.10873175939032 13.161006538863267" fill="#ddff1b" stroke="none" /><path d="M 119.61058180528143 92.48833698450437 l 34.449453098304986 -13.195563768174262 a57.890211736072594,57.890211736072594 0 0,0 0.3484312921004256,0.9336226336895591 l -34.671488978907036 12.60061799745537" fill="#acff21" stroke="none" /><path d="M 120.18372546131832 94.20196356495316 l 17.090286548940796 -4.909406060147511 a38.781455570012255,38.781455570012255 0 0,0 0.17878847408904724,0.6431972672378761 l -17.172261793596206 4.614497489490683" fill="#ff0000" stroke="none" /><path d="M 120.37134235888165 94.90015583598534 l 26.625258662615376 -6.6654748427375505 a48.44691155176375,48.44691155176375 0 0,0 0.19555757277403676,0.8107123904657285 l -26.736049035650232 6.206177220612417" fill="#ffb610" stroke="none" /><path d="M 120.83666639777658 97.38593545837742 l 28.459703618852604 -3.570412880587696 a49.68279237122492,49.68279237122492 0 0,0 0.0991518233368582,0.8494722713521212 l -28.51694579519305 3.0799968709107217" fill="#ffcc13" stroke="none" /><path d="M 120.96714384426684 98.82574320788733 l 33.87976506537695 -1.8974231559001111 a54.932855693526335,54.932855693526335 0 0,0 0.044747759540298346,0.9445544796387557 l -33.90740643315075 1.3139575696383556" fill="#daff1c" stroke="none" /><line stroke="#e1ed5e" stroke-width="0.3" x1="184.98032266829074" x2="189.97916517819016" y1="98.17113171792111" y2="98.06355123074" /><path d="M 185.9800911702706 98.14961562048488 a86.0,86.0 0 0,1 -9.607161424134198,41.387399972396054" fill="none" id="id148" stroke="none" /><text fill="#e1ed5e" style="font-size:6.75px; font-family:Arial;" text-anchor="middle"><textPath startOffset="21.466115282336823" xlink:href="#id148">April</textPath></text><line stroke="#e1ed5e" stroke-width="0.3" x1="174.80103733775053" x2="179.2010983576182" y1="140.37084112569926" y2="142.7455964860345" /><path d="M 175.68104954172406 140.8457921977663 a86.0,86.0 0 0,1 -30.038265399797805,32.042727171017184" fill="none" id="id149" stroke="none" /><text fill="#e1ed5e" style="font-size:6.75px; font-family:Arial;" text-anchor="middle"><textPath startOffset="22.206326154141568" xlink:href="#id149">May</textPath></text><line stroke="#e1ed5e" stroke-width="0.3" x1="143.8653032363475" x2="146.44561519142675" y1="172.8068346515853" y2="177.08958963109032" /><path d="M 144.38136562736335 173.6633856474863 a86.0,86.0 0 0,1 -40.68145358897372,12.25698825130547" fill="none" id="id150" stroke="none" /><text fill="#e1ed5e" style="font-size:6.75px; font-family:Arial;" text-anchor="middle"><textPath startOffset="21.466115282336833" xlink:href="#id150">June</textPath></text><line stroke="#e1ed5e" stroke-width="0.3" x1="102.19456741930631" x2="102.32365962044197" y1="184.97166512339345" y2="189.96999836594603" /><path d="M 102.22038585953345 185.97133177190398 a86.0,86.0 0 0,1 -42.740103519485714,-10.115201625700543" fill="none" id="id151" stroke="none" /><text fill="#e1ed5e" style="font-size:6.75px; font-family:Arial;" text-anchor="middle"><textPath startOffset="22.20632615414155" xlink:href="#id151">July</textPath></text><line stroke="#e1ed5e" stroke-width="0.3" x1="58.666819895761336" x2="56.23545636021788" y1="174.27360380694188" y2="178.64263932499728" /><path d="M 58.180547188652646 175.14741091055294 a86.0,86.0 0 0,1 -31.652253787137756,-30.449443065178592" fill="none" id="id152" stroke="none" /><text fill="#e1ed5e" style="font-size:6.75px; font-family:Arial;" text-anchor="middle"><textPath startOffset="22.20632615414155" xlink:href="#id152">August</textPath></text><line stroke="#e1ed5e" stroke-width="0.3" x1="26.63291911575756" x2="22.317208475507996" y1="142.92168965132927" y2="145.44649492493687" /><path d="M 25.769776987707644 143.4266507060508 a86.0,86.0 0 0,1 -11.730757126820373,-40.83630448921669" fill="none" id="id153" stroke="none" /><text fill="#e1ed5e" style="font-size:6.75px; font-family:Arial;" text-anchor="middle"><textPath startOffset="21.46611528233685" xlink:href="#id153">September</textPath></text><line stroke="#e1ed5e" stroke-width="0.3" x1="15.007084014347285" x2="10.007500721073583" y1="101.09737516637583" y2="101.16192664675087" /><path d="M 14.007167355692545 101.11028546245083 a86.0,86.0 0 0,1 10.666146001902534,-42.60595125391555" fill="none" id="id154" stroke="none" /><text fill="#e1ed5e" style="font-size:6.75px; font-family:Arial;" text-anchor="middle"><textPath startOffset="22.20632615414155" xlink:href="#id154">October</textPath></text><line stroke="#e1ed5e" stroke-width="0.3" x1="26.266209847984243" x2="21.928928074336255" y1="57.711370442889674" y2="55.22380399835377" /><path d="M 25.398753493254645 57.213857153982495 a86.0,86.0 0 0,1 29.58750427330803,-30.492523968695096" fill="none" id="id155" stroke="none" /><text fill="#e1ed5e" style="font-size:6.75px; font-family:Arial;" text-anchor="middle"><textPath startOffset="21.46611528233685" xlink:href="#id155">November</textPath></text><line stroke="#e1ed5e" stroke-width="0.3" x1="56.762969772571076" x2="54.21961505331055" y1="26.818313649435495" y2="22.513508569990535" /><path d="M 56.25429882871897 25.957352633546506 a86.0,86.0 0 0,1 42.265352541879196,-11.944610805530505" fill="none" id="id156" stroke="none" /><text fill="#e1ed5e" style="font-size:6.75px; font-family:Arial;" text-anchor="middle"><textPath startOffset="22.20632615414155" xlink:href="#id156">December</textPath></text></svg>